HIERARCHY
ROOT Hips
{
	OFFSET 0.000000 83.214638 0.000000
	CHANNELS 6 Xposition Yposition Zposition Xrotation Yrotation Zrotation
	JOINT Pelvis
	{
		OFFSET 0.000000 0.000000 0.000000
		CHANNELS 3 Xrotation Yrotation Zrotation
		JOINT LeftUpLeg
		{
			OFFSET 8.479700 -4.795502 -0.379100
			CHANNELS 3 Xrotation Yrotation Zrotation
			JOINT LeftLeg
			{
				OFFSET 0.024144 -32.555107 0.112900
				CHANNELS 3 Xrotation Yrotation Zrotation
				JOINT LeftFoot
				{
					OFFSET -0.024144 -32.638630 -3.012600
					CHANNELS 3 Xrotation Yrotation Zrotation
					JOINT LeftToeBase
					{
						OFFSET 0.970200 -13.225400 11.864200
						CHANNELS 3 Xrotation Yrotation Zrotation
						End Site
						{
							OFFSET 0.000000 12.319262 0.000000
						}
					}
					JOINT LFootTongue
					{
						OFFSET 1.142400 -1.059800 6.665200
						CHANNELS 3 Xrotation Yrotation Zrotation
						End Site
						{
							OFFSET 0.000000 12.319262 0.000000
						}
					}
				}
				JOINT LeftPantLeg
				{
					OFFSET 0.918482 -16.533964 -2.284700
					CHANNELS 3 Xrotation Yrotation Zrotation
					End Site
					{
						OFFSET 0.350399 24.744368 0.000000
					}
				}
			}
		}
		JOINT RightUpLeg
		{
			OFFSET -8.479700 -4.795502 -0.379100
			CHANNELS 3 Xrotation Yrotation Zrotation
			JOINT RightLeg
			{
				OFFSET -0.023144 -32.555092 0.112900
				CHANNELS 3 Xrotation Yrotation Zrotation
				JOINT RightFoot
				{
					OFFSET 0.023144 -32.638641 -3.012700
					CHANNELS 3 Xrotation Yrotation Zrotation
					JOINT RightToeBase
					{
						OFFSET -0.970200 -13.225400 11.864200
						CHANNELS 3 Xrotation Yrotation Zrotation
						End Site
						{
							OFFSET 0.000000 12.319244 0.000000
						}
					}
					JOINT RFootTongue
					{
						OFFSET -1.142200 -1.059800 6.665200
						CHANNELS 3 Xrotation Yrotation Zrotation
						End Site
						{
							OFFSET 0.000000 12.319243 0.000000
						}
					}
				}
				JOINT RightPantLeg
				{
					OFFSET -0.919482 -16.533978 -2.284800
					CHANNELS 3 Xrotation Yrotation Zrotation
					End Site
					{
						OFFSET -0.350400 24.744419 0.000000
					}
				}
			}
		}
	}
	JOINT Spine
	{
		OFFSET 0.000000 7.722000 1.166200
		CHANNELS 3 Xrotation Yrotation Zrotation
		JOINT Spine1
		{
			OFFSET 0.000000 12.024101 0.248800
			CHANNELS 3 Xrotation Yrotation Zrotation
			JOINT Spine2
			{
				OFFSET 0.000000 11.502998 -0.491200
				CHANNELS 3 Xrotation Yrotation Zrotation
				JOINT Neck
				{
					OFFSET 0.000000 18.430702 -3.123100
					CHANNELS 3 Xrotation Yrotation Zrotation
					JOINT Head
					{
						OFFSET 0.000000 9.051102 1.034000
						CHANNELS 3 Xrotation Yrotation Zrotation
						JOINT HairB
						{
							OFFSET 0.208400 24.786102 24.822300
							CHANNELS 3 Xrotation Yrotation Zrotation
							End Site
							{
								OFFSET 0.000000 32.263779 0.000000
							}
						}
						JOINT HairA
						{
							OFFSET -7.081100 24.428299 23.196600
							CHANNELS 3 Xrotation Yrotation Zrotation
							End Site
							{
								OFFSET 0.000000 32.263779 0.000000
							}
						}
						JOINT Hat
						{
							OFFSET 16.728800 15.048294 -15.439601
							CHANNELS 3 Xrotation Yrotation Zrotation
							End Site
							{
								OFFSET 0.000000 32.263779 0.000000
							}
						}
					}
				}
				JOINT LeftShoulder
				{
					OFFSET 6.197800 13.665199 -4.064700
					CHANNELS 3 Xrotation Yrotation Zrotation
					JOINT LeftArm
					{
						OFFSET 7.778100 -0.187103 -1.709300
						CHANNELS 3 Xrotation Yrotation Zrotation
						JOINT LeftForeArm
						{
							OFFSET 22.049376 0.000000 0.000000
							CHANNELS 3 Xrotation Yrotation Zrotation
							JOINT LeftHand
							{
								OFFSET 23.009392 0.000000 0.000000
								CHANNELS 3 Xrotation Yrotation Zrotation
								JOINT LeftHandThumb1
								{
									OFFSET 3.507191 -2.063065 3.133727
									CHANNELS 3 Xrotation Yrotation Zrotation
									JOINT LeftHandThumb2
									{
										OFFSET 3.101337 -1.790558 1.790558
										CHANNELS 3 Xrotation Yrotation Zrotation
										JOINT LeftHandThumb3
										{
											OFFSET 3.058640 -1.765907 1.765906
											CHANNELS 3 Xrotation Yrotation Zrotation
											End Site
											{
												OFFSET -0.415260 3.926476 -0.049563
											}
										}
									}
								}
								JOINT LeftHandIndex1
								{
									OFFSET 11.334419 -0.901459 3.706815
									CHANNELS 3 Xrotation Yrotation Zrotation
									JOINT LeftHandIndex2
									{
										OFFSET 3.283112 0.000000 0.000000
										CHANNELS 3 Xrotation Yrotation Zrotation
										JOINT LeftHandIndex3
										{
											OFFSET 3.323853 0.000000 0.000000
											CHANNELS 3 Xrotation Yrotation Zrotation
											End Site
											{
												OFFSET -1.135597 3.097809 0.402452
											}
										}
									}
								}
								JOINT LeftHandMiddle1
								{
									OFFSET 11.335861 0.000000 0.000000
									CHANNELS 3 Xrotation Yrotation Zrotation
									JOINT LeftHandMiddle2
									{
										OFFSET 3.410492 0.000000 0.000000
										CHANNELS 3 Xrotation Yrotation Zrotation
										JOINT LeftHandMiddle3
										{
											OFFSET 3.312172 0.000000 0.000000
											CHANNELS 3 Xrotation Yrotation Zrotation
											End Site
											{
												OFFSET -1.150200 3.080154 0.400270
											}
										}
									}
								}
								JOINT LeftHandRing1
								{
									OFFSET 11.514786 -0.013176 -3.003090
									CHANNELS 3 Xrotation Yrotation Zrotation
									JOINT LeftHandRing2
									{
										OFFSET 3.053307 0.000000 0.000000
										CHANNELS 3 Xrotation Yrotation Zrotation
										JOINT LeftHandRing3
										{
											OFFSET 3.295807 0.000000 0.000000
											CHANNELS 3 Xrotation Yrotation Zrotation
											End Site
											{
												OFFSET -1.281006 3.013344 0.375733
											}
										}
									}
								}
								JOINT LeftHandPinky1
								{
									OFFSET 10.518692 -0.960396 -5.730441
									CHANNELS 3 Xrotation Yrotation Zrotation
									JOINT LeftHandPinky2
									{
										OFFSET 2.861649 0.000000 0.000000
										CHANNELS 3 Xrotation Yrotation Zrotation
										JOINT LeftHandPinky3
										{
											OFFSET 2.863380 0.000000 0.000000
											CHANNELS 3 Xrotation Yrotation Zrotation
											End Site
											{
												OFFSET -0.843597 2.711159 0.369971
											}
										}
									}
								}
							}
							JOINT LSleeve
							{
								OFFSET 6.676277 -0.344902 -1.011730
								CHANNELS 3 Xrotation Yrotation Zrotation
								End Site
								{
									OFFSET 0.000000 14.885353 0.000000
								}
							}
						}
					}
				}
				JOINT RightShoulder
				{
					OFFSET -6.197800 13.665199 -4.064700
					CHANNELS 3 Xrotation Yrotation Zrotation
					JOINT RightArm
					{
						OFFSET -7.778100 -0.187103 -1.709300
						CHANNELS 3 Xrotation Yrotation Zrotation
						JOINT RightForeArm
						{
							OFFSET -22.049376 0.000000 0.000000
							CHANNELS 3 Xrotation Yrotation Zrotation
							JOINT RightHand
							{
								OFFSET -23.009392 0.000000 0.000000
								CHANNELS 3 Xrotation Yrotation Zrotation
								JOINT RightHandThumb1
								{
									OFFSET -3.507191 -2.063065 3.133727
									CHANNELS 3 Xrotation Yrotation Zrotation
									JOINT RightHandThumb2
									{
										OFFSET -3.101337 -1.790558 1.790558
										CHANNELS 3 Xrotation Yrotation Zrotation
										JOINT RightHandThumb3
										{
											OFFSET -3.058640 -1.765907 1.765906
											CHANNELS 3 Xrotation Yrotation Zrotation
											End Site
											{
												OFFSET 0.415260 3.926476 -0.049563
											}
										}
									}
								}
								JOINT RightHandIndex1
								{
									OFFSET -11.334419 -0.901459 3.706815
									CHANNELS 3 Xrotation Yrotation Zrotation
									JOINT RightHandIndex2
									{
										OFFSET -3.283112 0.000000 0.000000
										CHANNELS 3 Xrotation Yrotation Zrotation
										JOINT RightHandIndex3
										{
											OFFSET -3.323853 0.000000 0.000000
											CHANNELS 3 Xrotation Yrotation Zrotation
											End Site
											{
												OFFSET 1.135597 3.097809 0.402452
											}
										}
									}
								}
								JOINT RightHandMiddle1
								{
									OFFSET -11.335861 0.000000 0.000000
									CHANNELS 3 Xrotation Yrotation Zrotation
									JOINT RightHandMiddle2
									{
										OFFSET -3.410492 0.000000 0.000000
										CHANNELS 3 Xrotation Yrotation Zrotation
										JOINT RightHandMiddle3
										{
											OFFSET -3.312172 0.000000 0.000000
											CHANNELS 3 Xrotation Yrotation Zrotation
											End Site
											{
												OFFSET 1.150200 3.080154 0.400270
											}
										}
									}
								}
								JOINT RightHandRing1
								{
									OFFSET -11.514786 -0.013176 -3.003090
									CHANNELS 3 Xrotation Yrotation Zrotation
									JOINT RightHandRing2
									{
										OFFSET -3.053307 0.000000 0.000000
										CHANNELS 3 Xrotation Yrotation Zrotation
										JOINT RightHandRing3
										{
											OFFSET -3.295807 0.000000 0.000000
											CHANNELS 3 Xrotation Yrotation Zrotation
											End Site
											{
												OFFSET 1.281006 3.013344 0.375733
											}
										}
									}
								}
								JOINT RightHandPinky1
								{
									OFFSET -10.518692 -0.960396 -5.730441
									CHANNELS 3 Xrotation Yrotation Zrotation
									JOINT RightHandPinky2
									{
										OFFSET -2.861649 0.000000 0.000000
										CHANNELS 3 Xrotation Yrotation Zrotation
										JOINT RightHandPinky3
										{
											OFFSET -2.863380 0.000000 0.000000
											CHANNELS 3 Xrotation Yrotation Zrotation
											End Site
											{
												OFFSET 0.843597 2.711159 0.369971
											}
										}
									}
								}
							}
							JOINT RSleeve
							{
								OFFSET -6.676277 -0.344902 -1.011730
								CHANNELS 3 Xrotation Yrotation Zrotation
								End Site
								{
									OFFSET 0.000000 14.885353 0.000000
								}
							}
						}
					}
				}
				JOINT Backpack
				{
					OFFSET 0.000000 -2.471497 36.677502
					CHANNELS 3 Xrotation Yrotation Zrotation
					End Site
					{
						OFFSET 0.000000 20.427315 0.000000
					}
				}
				JOINT Hood
				{
					OFFSET 0.000000 18.754097 -10.431000
					CHANNELS 3 Xrotation Yrotation Zrotation
					JOINT Hood1
					{
						OFFSET 0.000000 -5.011002 -7.685901
						CHANNELS 3 Xrotation Yrotation Zrotation
						End Site
						{
							OFFSET 0.000000 9.175140 0.000000
						}
					}
				}
				JOINT LHoodieString
				{
					OFFSET 5.250500 16.397697 3.089900
					CHANNELS 3 Xrotation Yrotation Zrotation
					JOINT LHoodieString1
					{
						OFFSET 0.257700 -6.364304 3.694600
						CHANNELS 3 Xrotation Yrotation Zrotation
						JOINT LHoodieString2
						{
							OFFSET 0.000000 -9.643799 2.679100
							CHANNELS 3 Xrotation Yrotation Zrotation
							End Site
							{
								OFFSET 0.000000 10.009018 0.000000
							}
						}
					}
				}
				JOINT RHoodieString
				{
					OFFSET -5.250500 16.397697 3.089900
					CHANNELS 3 Xrotation Yrotation Zrotation
					JOINT RHoodieString1
					{
						OFFSET -0.257700 -6.364304 3.694600
						CHANNELS 3 Xrotation Yrotation Zrotation
						JOINT RHoodieString2
						{
							OFFSET 0.000000 -9.643799 2.679100
							CHANNELS 3 Xrotation Yrotation Zrotation
							End Site
							{
								OFFSET 0.000000 10.009018 0.000000
							}
						}
					}
				}
			}
			JOINT LBackpack_Strap
			{
				OFFSET 15.223200 -7.719803 -6.610900
				CHANNELS 3 Xrotation Yrotation Zrotation
				End Site
				{
					OFFSET 0.000000 16.040596 0.000000
				}
			}
			JOINT RBackpack_Strap
			{
				OFFSET -15.223000 -7.719803 -6.610900
				CHANNELS 3 Xrotation Yrotation Zrotation
				End Site
				{
					OFFSET 0.000000 16.040596 0.000000
				}
			}
		}
	}
	JOINT BoyFacialAnim_Joint
	{
		OFFSET 1.000000 -82.208099 -1.550900
		CHANNELS 3 Xrotation Yrotation Zrotation
		End Site
		{
			OFFSET 0.000000 30.012791 0.000000
		}
	}
}
MOTION
Frames: 4
Frame Time: 0.033333
0.008608 80.879227 0.402644 -0.893354 -1.577737 5.103937 0.000000 0.000000 -0.000000 -1.296326 4.973044 -11.141796 11.776265 5.157652 -3.258508 -9.556306 -1.111078 8.582407 0.000000 0.000000 -0.000000 0.000000 0.000000 -0.000000 -0.000000 0.000000 -0.000000 -21.611210 -9.948108 -17.099409 25.826641 -9.348611 -2.370474 -3.528846 -3.629167 10.668066 0.000000 -0.000003 -0.000000 0.000000 -0.000003 -0.000000 0.000000 0.000001 0.000000 1.282328 1.209412 -2.757879 0.738532 -0.252662 -5.942966 0.719822 -0.776646 -5.852514 1.046622 0.298136 2.173994 1.574061 -0.544182 8.140518 0.000000 0.000000 -0.000000 0.000000 0.000000 -0.000000 0.000000 0.000000 -0.000000 4.527027 -3.327160 -5.472612 -1.219820 -0.655949 -67.341553 -0.000004 -17.728412 -0.000002 -10.567086 12.242528 -10.591697 16.715302 -2.186327 13.443015 10.530747 35.358131 -13.460535 -0.000002 0.000002 0.000001 0.324453 2.285799 -7.416887 0.285326 1.807710 -17.937614 -0.000000 -0.000000 -0.000002 0.947511 6.455521 -14.690514 0.767863 2.901401 -29.641638 -0.000001 -0.000001 -0.000002 2.053923 8.123666 -23.452576 1.405769 3.808344 -40.509422 0.000000 -0.000000 -0.000000 5.377121 13.104623 -34.839371 1.767622 4.194084 -45.691531 0.000001 0.000001 -0.000000 0.000000 0.000001 0.000001 3.582360 13.764049 5.044455 4.032753 -3.507355 83.677809 0.000006 14.506736 -0.000046 -25.811141 -6.746970 10.696580 16.041025 3.891023 -12.872188 10.522214 -37.068932 12.933469 -0.000000 0.000001 0.000000 0.292969 -2.000750 6.712928 0.227648 -1.439690 17.969835 -0.000000 0.000001 0.000000 0.848499 -6.027504 14.063893 0.612454 -2.310490 29.688821 0.000001 0.000001 -0.000002 1.878161 -7.536596 22.845490 1.120840 -3.032371 40.563664 -0.000001 -0.000000 0.000004 5.034557 -12.351712 34.285767 1.409096 -3.339353 45.746852 0.000001 -0.000000 -0.000002 0.000001 -0.000001 -0.000001 0.000000 -0.000000 -0.000000 0.000000 -0.000000 -0.000000 0.000000 -0.000000 -0.000000 0.000000 -0.000000 -0.000000 0.000000 -0.000000 -0.000000 0.000000 -0.000000 -0.000000 0.000000 -0.000000 -0.000000 0.000000 -0.000000 -0.000000 0.000000 -0.000000 -0.000000 0.000000 -0.000000 -0.000000 0.000000 -0.000000 -0.000000 0.000000 0.000000 -0.000000 
0.005903 80.878716 0.402423 -0.876988 -1.555674 5.124128 -0.000000 -0.000000 0.000000 -1.268160 5.039906 -11.129992 11.746629 5.473751 -3.289337 -9.535225 -1.484660 8.528403 -0.000000 0.000001 -0.000000 -0.000000 0.000001 0.000000 -0.000000 0.000002 -0.000001 -21.649415 -9.960306 -17.165346 25.870984 -9.264722 -2.296520 -3.562319 -3.640538 10.630971 -0.000000 -0.000000 0.000000 -0.000000 -0.000000 0.000000 -0.000000 0.000000 0.000001 1.278191 1.209270 -2.749448 0.738071 -0.252880 -5.919644 0.719369 -0.775027 -5.829682 1.012039 0.322257 2.138649 1.277119 -0.459950 8.142521 0.000000 -0.000000 -0.000000 0.000000 -0.000000 -0.000000 0.000000 -0.000000 -0.000000 4.531260 -3.264237 -5.505921 -1.044024 -0.625819 -67.431316 0.000004 -17.887828 0.000011 -10.568337 12.156664 -10.709457 16.715303 -2.186328 13.443030 10.530746 35.358117 -13.460518 -0.000000 -0.000001 0.000001 0.324455 2.285794 -7.416847 0.285327 1.807713 -17.937643 -0.000000 0.000000 -0.000007 0.947512 6.455522 -14.690514 0.767865 2.901401 -29.641631 -0.000000 -0.000000 0.000002 2.053924 8.123668 -23.452592 1.405772 3.808343 -40.509422 -0.000000 0.000000 -0.000004 5.377128 13.104625 -34.839395 1.767617 4.194082 -45.691524 0.000000 0.000001 -0.000000 0.000001 0.000002 -0.000001 3.578964 13.775904 5.005409 4.105658 -3.958180 83.657899 0.000002 14.390164 0.000002 -25.564886 -6.903056 10.579248 15.973907 3.927768 -12.857630 10.502953 -36.966538 12.889397 0.000000 0.000001 -0.000001 0.289118 -1.966396 6.703925 0.226426 -1.435911 17.921134 -0.000002 0.000001 -0.000001 0.846742 -6.021669 14.058216 0.610187 -2.306514 29.632605 -0.000002 0.000001 -0.000002 1.886091 -7.549019 22.882471 1.120097 -3.031512 40.549600 -0.000000 0.000000 -0.000003 5.029538 -12.404740 34.326471 1.409114 -3.339366 45.747053 -0.000000 -0.000002 -0.000002 0.000000 -0.000000 -0.000001 -0.000000 0.000000 -0.000000 -0.000000 0.000000 -0.000000 -0.000000 0.000000 -0.000000 -0.000000 0.000000 -0.000000 -0.000000 0.000000 0.000001 -0.000000 -0.000000 0.000001 -0.000000 0.000000 -0.000000 -0.000000 0.000000 0.000001 -0.000000 -0.000000 0.000001 0.000000 0.000000 0.000000 0.000000 0.000000 0.000000 -0.000000 -0.000000 0.000000 
0.000873 80.877831 0.398822 -0.860820 -1.488484 5.147217 0.000000 -0.000000 -0.000000 -1.257732 5.094658 -11.124996 11.728201 5.617586 -3.313448 -9.510937 -1.734441 8.502550 -0.000000 -0.000000 -0.000000 -0.000000 -0.000000 0.000000 -0.000001 0.000000 0.000001 -21.686701 -9.977414 -17.234657 25.922262 -9.216460 -2.224670 -3.598715 -3.656308 10.602655 0.000000 -0.000001 -0.000000 0.000000 -0.000001 -0.000000 -0.000000 -0.000001 -0.000001 1.265604 1.208702 -2.727590 0.738406 -0.247791 -5.861061 0.719698 -0.764106 -5.772333 0.980024 0.346291 2.084272 0.999539 -0.369945 8.067903 -0.000000 -0.000000 -0.000000 -0.000000 -0.000000 -0.000000 -0.000000 -0.000000 -0.000000 4.530027 -3.239783 -5.583598 -0.928538 -0.433955 -67.527915 -0.000006 -17.916102 -0.000041 -10.335085 11.996812 -10.842275 16.715300 -2.186324 13.443061 10.530752 35.358110 -13.460556 0.000000 0.000001 0.000001 0.324454 2.285796 -7.416859 0.285330 1.807711 -17.937610 -0.000001 -0.000001 -0.000000 0.947514 6.455521 -14.690502 0.767862 2.901401 -29.641631 0.000001 -0.000000 -0.000003 2.053922 8.123665 -23.452566 1.405773 3.808344 -40.509425 -0.000000 0.000001 -0.000002 5.377127 13.104625 -34.839388 1.767620 4.194082 -45.691531 -0.000000 0.000000 0.000001 -0.000000 -0.000002 0.000000 3.570021 13.753373 5.002333 4.119734 -4.383382 83.510565 0.000003 14.316392 -0.000003 -25.106128 -6.869905 10.396440 15.801301 4.022281 -12.819667 10.453374 -36.703220 12.776251 -0.000001 -0.000001 0.000000 0.279063 -1.878065 6.680699 0.223300 -1.426213 17.795920 0.000000 -0.000001 0.000003 0.840918 -6.002357 14.039340 0.604382 -2.296283 29.488024 0.000000 -0.000000 0.000001 1.906578 -7.580949 22.977636 1.118182 -3.029277 40.513434 -0.000001 0.000002 -0.000003 5.017003 -12.541162 34.431021 1.408847 -3.339115 45.742590 0.000001 -0.000001 -0.000002 -0.000000 0.000000 0.000001 0.000000 0.000000 -0.000000 0.000000 0.000000 -0.000000 0.000000 0.000000 -0.000000 0.000000 0.000000 -0.000000 0.000000 0.000000 0.000001 -0.000000 0.000000 -0.000000 0.000000 0.000000 -0.000000 0.000000 0.000000 0.000001 -0.000000 0.000000 -0.000000 0.000000 0.000000 -0.000000 0.000000 0.000000 -0.000000 0.000000 -0.000000 -0.000000 
-0.006499 80.877197 0.392070 -0.845322 -1.374407 5.173765 0.000000 0.000000 -0.000001 -1.299724 5.072330 -11.121553 11.759727 5.608390 -3.307145 -9.506172 -1.780987 8.471005 0.000000 0.000000 0.000000 0.000000 0.000000 0.000000 -0.000001 0.000000 0.000000 -21.715408 -9.986953 -17.272999 25.960463 -9.266050 -2.216556 -3.619546 -3.671249 10.615578 0.000000 -0.000002 0.000000 0.000000 -0.000002 0.000000 -0.000000 -0.000003 -0.000000 1.246458 1.211030 -2.694091 0.743360 -0.235503 -5.765625 0.724551 -0.743448 -5.678892 0.959315 0.364063 2.006845 0.815515 -0.302795 7.884007 -0.000000 -0.000000 -0.000000 -0.000000 -0.000000 -0.000000 -0.000000 -0.000000 -0.000000 4.521473 -3.280251 -5.711849 -0.922919 -0.030855 -67.632479 0.000000 -17.705742 0.000019 -9.844627 11.761549 -10.927370 16.715293 -2.186323 13.443048 10.530754 35.358113 -13.460562 -0.000002 0.000001 -0.000000 0.324452 2.285795 -7.416867 0.285327 1.807714 -17.937637 -0.000001 0.000000 -0.000000 0.947512 6.455521 -14.690489 0.767866 2.901403 -29.641648 -0.000000 -0.000002 0.000007 2.053923 8.123665 -23.452578 1.405771 3.808342 -40.509415 -0.000000 0.000000 -0.000004 5.377127 13.104620 -34.839398 1.767619 4.194082 -45.691531 0.000000 0.000001 -0.000002 0.000001 -0.000001 0.000001 3.556537 13.681280 5.027193 4.049401 -4.631095 83.208547 0.000003 14.377051 -0.000025 -24.477591 -6.639984 10.229947 15.513303 4.179943 -12.754871 10.372051 -36.263708 12.588729 -0.000000 -0.000005 -0.000000 0.262731 -1.730700 6.642103 0.218128 -1.410011 17.587052 -0.000001 0.000000 0.000000 0.831129 -5.969742 14.007542 0.594757 -2.279191 29.246863 0.000001 0.000003 -0.000007 1.940972 -7.634081 23.136366 1.115000 -3.025553 40.453172 0.000001 0.000001 0.000002 4.997272 -12.768857 34.605123 1.408231 -3.338510 45.731938 0.000002 0.000001 -0.000003 0.000000 -0.000000 -0.000000 0.000000 0.000000 -0.000000 0.000000 0.000000 -0.000000 0.000000 0.000000 -0.000000 0.000000 0.000000 -0.000000 0.000000 0.000000 0.000001 -0.000000 0.000000 -0.000000 0.000000 0.000000 -0.000000 0.000000 0.000000 0.000001 -0.000000 0.000000 -0.000000 0.000000 -0.000000 0.000000 0.000000 -0.000000 0.000000 0.000000 0.000000 -0.000001 
